PLOT

When an alien abduction nightmare is revealed to have been much more than a dream, a skeptical
grad student studying the "modern mythology" of UFOs and ETs finds himself confronting an
impossible reality involving shape-shifting extraterrestrials, implanted objects, organ
harvesting and humans possessed by a malevolent alien presence unlike anything he has ever
heard about.

Encoded By .......: BigPerm
Runtime ..........: 1h 23mn
File Size ........: 664 MB
Resolution .......: 640 x 352 
http://www.imdb.com/title/tt1502402/
Ratings ..........: Ratings: 5.7/10 from 29 users
Genre ............: Horror,Thriller
Language .........: English
Subtitles ........: None
Video
ID : 0
Format : MPEG-4 Visual
Format profile : Advanced Simple@L5
Format settings, BVOP : Yes
Format settings, QPel : No
Format settings, GMC : No warppoints
Format settings, Matrix : Default (H.263)
Muxing mode : Packed bitstream
Codec ID : XVID
Codec ID/Hint : XviD
Duration : 1h 23mn
Bit rate : 874 Kbps
Width : 640 pixels
Height : 352 pixels
Display aspect ratio : 16:9
Frame rate : 23.976 fps
Color space : YUV
Chroma subsampling : 4:2:0
Bit depth : 8 bits
Scan type : Progressive
Compression mode : Lossy
Bits/(Pixel*Frame) : 0.162
Stream size : 524 MiB (79%)
Writing library : XviD 64

Audio
ID : 1
Format : AC-3
Format/Info : Audio Coding 3
Mode extension : CM (complete main)
Codec ID : 2000
Duration : 1h 23mn
Bit rate mode : Constant
Bit rate : 224 Kbps
Channel(s) : 2 channels
Channel positions : Front: L R
Sampling rate : 48.0 KHz
Bit depth : 16 bits
Compression mode : Lossy
Stream size : 134 MiB (20%)
Alignment : Split accross interleaves
Interleave, duration : 42 ms (1.00 video frame)
Interleave, preload duration : 500 ms
 
http://www.shotpix.com/images/20519363489118053836.png
 
http://www.shotpix.com/images/12320765173284447266.png
 
http://www.shotpix.com/images/60264306706315145591.png
 
http://www.shotpix.com/images/43488565432047481700.png
 
http://www.shotpix.com/images/25677199778202562311.png